<svg xmlns="http://www.w3.org/2000/svg" viewBox="0 0 16 16"><title>ic_code</title><g id="Artwork"><path d="M1.67,3.71V5.58a.74.74,0,0,1-.21.51L-.39,8,1.46,9.91a.74.74,0,0,1,.21.51v1.87A2.69,2.69,0,0,0,4.33,15H7V13H4.33a.69.69,0,0,1-.66-.71V10.42a2.73,2.73,0,0,0-.77-1.9L2.39,8l.51-.52a2.73,2.73,0,0,0,.77-1.9V3.71A.69.69,0,0,1,4.33,3H7V1H4.33A2.69,2.69,0,0,0,1.67,3.71Z"/><path d="M14.54,6.09a.74.74,0,0,1-.21-.51V3.71A2.69,2.69,0,0,0,11.67,1H9V3h2.67a.69.69,0,0,1,.66.71V5.58a2.73,2.73,0,0,0,.77,1.9l.51.52-.51.52a2.73,2.73,0,0,0-.77,1.9v1.87a.69.69,0,0,1-.66.71H9v2h2.67a2.69,2.69,0,0,0,2.66-2.71V10.42a.74.74,0,0,1,.21-.51L16.39,8Z"/></g></svg>